M48
;GenerationSoftware,Autodesk,EAGLE,9.2.1*%
;CreationDate,2018-10-17T20:14:16Z*%
FMAT,2
ICI,OFF
METRIC,TZ,000.000
T13C0.350
T12C0.750
T11C0.813
T10C0.900
T9C0.914
T8C0.950
T7C0.965
T6C1.000
T5C1.016
T4C1.321
T3C1.600
T2C2.300
T1C3.000
%
G90
M71
T1
X6016Y54911
X147016Y54911
X147016Y206911
X6016Y206911
X85310Y145475
X119702Y177809
X12260Y127644
T2
X12827Y163627
X12827Y151587
T3
X43904Y66294
X96075Y66319
X90995Y66319
X140208Y71628
X140208Y76708
X140208Y148336
X140208Y153416
X140208Y109982
X140208Y115062
X48984Y66294
T4
X140462Y181686
X140462Y186690
X140462Y191694
T5
X98552Y189103
X82677Y107569
X87757Y107569
X85217Y90297
X82677Y90297
X87757Y90297
X85217Y98679
X129286Y64516
X126746Y64516
X124206Y64516
X121666Y64516
X7238Y188730
X7238Y191270
X9778Y188730
X9778Y191270
X102362Y160147
X102362Y157607
X102362Y155067
X102362Y152527
X98552Y181483
X98552Y184023
X98552Y186563
X21273Y65773
X98552Y191643
X98552Y194183
X98552Y196723
X82677Y98679
X87757Y98679
X26352Y65773
X94170Y181483
X94170Y184023
X94170Y186563
X94170Y189103
X94170Y191643
X94170Y194183
X94170Y196723
X124571Y145860
X22352Y158877
X124571Y148400
X124571Y150940
X108101Y145542
X110641Y145542
X113181Y145542
X118935Y200152
X121475Y200152
X124015Y200152
X111125Y199517
X111125Y196977
X111125Y194437
X67818Y141986
X67818Y144526
X62611Y131826
X65151Y131826
X118110Y116078
X115570Y116078
X123190Y126746
X120650Y126746
X77724Y119126
X75184Y119126
X58928Y124714
X56388Y124714
X32512Y107950
X29972Y107950
X48260Y125984
X50800Y125984
X108966Y102794
X108966Y100254
X108966Y97714
X108966Y95174
X108966Y92634
X108966Y90094
X75565Y156274
X78105Y156274
X80645Y156274
X83185Y156274
X85725Y156274
X34290Y173736
X31750Y173736
X29210Y173736
X26670Y173736
X24130Y173736
X21273Y201041
X23812Y201041
X42545Y201041
X45085Y201041
X47625Y201041
X50165Y201041
X52705Y201041
X108966Y87554
X108966Y85014
X108966Y82474
X108966Y79934
X108966Y77394
X40132Y119761
X37592Y119761
X42672Y119761
X20066Y119761
X17526Y119761
X22606Y119761
X40132Y98679
X37592Y98679
X42672Y98679
X40132Y107569
X37592Y107569
X42672Y107569
X40259Y90297
X42799Y90297
X37719Y90297
X20066Y107569
X22606Y107569
X17526Y107569
X20066Y90297
X22606Y90297
X17526Y90297
X20066Y98679
X22606Y98679
X17526Y98679
X108966Y74854
X108966Y72314
X143637Y100305
X146177Y100305
X133121Y100305
X133121Y102845
X22352Y161417
X24892Y161417
X24892Y158877
X22352Y156337
X24892Y156337
X22352Y153797
X24892Y153797
X106891Y160147
X106891Y157607
X106891Y155067
X106891Y152527
X145669Y133350
X145669Y130810
X145669Y128270
X145669Y125730
X46609Y78346
X49149Y78346
X93015Y78372
X95555Y78372
X19177Y131826
X16637Y131826
X21844Y144526
X21844Y141986
X67120Y66459
X72200Y66459
X65659Y119761
X68199Y119761
X63119Y119761
X85217Y119761
X87757Y119761
X82677Y119761
X65659Y98679
X68199Y98679
X63119Y98679
X65659Y107569
X68199Y107569
X63119Y107569
X65278Y90856
X67818Y90856
X62738Y90856
X85217Y107569
T6
X10351Y174942
X10351Y169863
X10351Y177482
X10351Y172403
X89895Y114046
X80895Y114046
X70794Y113919
X61794Y113919
X25633Y113919
X43743Y113919
X16633Y113919
X34743Y113919
T7
X128397Y92634
X128397Y95174
X128397Y97714
X128397Y100254
X128397Y102794
X128397Y105334
X18796Y181229
X21336Y181229
X23876Y181229
X26416Y181229
X28956Y181229
X31496Y181229
X34036Y181229
X36576Y181229
X39116Y181229
X41656Y181229
X44196Y181229
X46736Y181229
X51816Y181229
X51816Y196469
X49276Y196469
X46736Y196469
X44196Y196469
X41656Y196469
X39116Y196469
X36576Y196469
X34036Y196469
X31496Y196469
X28956Y196469
X26416Y196469
X23876Y196469
X21336Y196469
X18796Y196469
X49276Y181229
X113157Y105334
X113157Y102794
X113157Y100254
X113157Y97714
X113157Y95174
X113157Y92634
X113157Y90094
X113157Y87554
X113157Y85014
X113157Y82474
X113157Y79934
X113157Y77394
X113157Y74854
X113157Y72314
X128397Y72314
X128397Y74854
X128397Y77394
X128397Y79934
X128397Y82474
X128397Y85014
X128397Y87554
X128397Y90094
T8
X17537Y158857
X15537Y158857
X15537Y156357
X17537Y156357
T9
X54346Y158433
X46746Y158433
T10
X34036Y191897
X41529Y171450
X21336Y192024
X56388Y193040
X87503Y128270
X46213Y135636
X46213Y138176
X58293Y150495
X133223Y85014
X46213Y140716
X16622Y139471
X16622Y142011
X16622Y144551
X48855Y119888
X62596Y144551
X92187Y135636
X92187Y138176
X92187Y140716
X62596Y139471
X62596Y142011
X133223Y90094
X133223Y87554
X98171Y110236
X30241Y114808
X30241Y117348
X30241Y119888
X133223Y92634
X48855Y114808
X56424Y119888
X56424Y117348
X56424Y114808
X76215Y106172
X76215Y108712
X76215Y111252
X48855Y117348
X39116Y201041
X36576Y201041
X34036Y201041
X31496Y201041
X121666Y108966
X120650Y104902
X13589Y206248
X13589Y199441
X102806Y61150
X7366Y82804
X30277Y149174
X68707Y124079
X134874Y203962
X118334Y112268
X50165Y86106
X133604Y57658
X89281Y85217
X130810Y108966
X100584Y202692
X91186Y202692
X59690Y196596
X55118Y196596
X100901Y81979
X53251Y82296
T11
X104267Y121666
X111887Y119126
X111887Y121666
X111887Y124206
X111887Y126746
X111887Y129286
X111887Y131826
X33655Y136906
X33655Y134366
X33655Y131826
X33655Y129286
X80487Y177546
X92487Y177546
X63493Y163957
X78493Y163957
X75971Y56546
X75971Y63546
X4318Y135636
X9398Y135636
X52197Y143185
X56134Y56317
X56134Y63317
X26035Y131826
X26035Y129286
X26035Y134366
X26035Y136906
X33655Y126746
X26035Y126746
X26035Y139446
X26035Y141986
X12827Y107569
X10287Y107569
X79629Y139446
X79629Y141986
X79629Y134366
X79629Y131826
X79629Y129286
X72009Y131826
X120904Y188204
X21336Y72136
X125666Y184213
X125666Y186753
X72009Y129286
X72009Y134366
X72009Y136906
X79629Y126746
X72009Y126746
X72009Y139446
X128778Y194119
X128778Y191579
X117411Y152273
X119443Y152273
X72009Y141986
X129921Y150940
X129921Y148400
X110617Y152527
X113157Y152527
X91948Y107569
X94488Y107569
X55880Y98679
X49911Y101219
X49911Y98679
X58420Y98679
X55880Y107569
X58420Y107569
X118872Y188204
X49911Y107569
X47371Y107569
X10287Y98679
X10287Y101219
X94488Y98679
X19177Y126873
X16637Y126873
X43790Y129032
X43790Y126492
X51562Y167005
X46482Y167005
X49022Y167005
X90983Y73965
X96063Y73965
X55702Y129159
X49149Y73965
X94488Y101219
X13716Y77216
X13716Y74676
X21336Y74676
X21336Y77216
X13716Y72136
X30924Y77089
X30924Y74549
X38545Y74549
X38545Y77089
X30924Y72009
X38545Y72009
X125730Y121666
X123190Y121666
X12700Y185674
X12700Y183134
X59626Y167386
X59626Y169926
X91694Y125730
X52197Y150185
X79629Y136906
X94234Y125730
X53162Y129159
X59880Y77089
X59880Y74549
X67501Y74549
X67501Y77089
X59880Y72009
X67501Y72009
X78296Y77089
X78296Y74549
X85916Y74549
X85916Y77089
X78296Y72009
X85916Y72009
X33655Y141986
X33655Y139446
X104267Y131826
X104267Y129286
X104267Y116586
X111887Y116586
X104267Y126746
X104267Y124206
X104267Y119126
X44069Y73965
T12
X75565Y161354
X73025Y174054
X75565Y174054
X73025Y161354
X85725Y161354
X70485Y161354
X67945Y161354
X85725Y174054
X83185Y174054
X80645Y174054
X78105Y174054
X67945Y174054
X70485Y174054
X83185Y161354
X80645Y161354
X78105Y161354
T13
X74676Y178054
M30