G04 EAGLE Gerber RS-274X export*
G75*
%MOMM*%
%FSLAX34Y34*%
%LPD*%
%IN*%
%IPPOS*%
%AMOC8*
5,1,8,0,0,1.08239X$1,22.5*%
G01*
%ADD10C,0.254000*%


D10*
X10160Y500000D02*
X1520000Y500000D01*
X1520000Y2120000D01*
X12700Y2120000D01*
X10160Y500000D01*
X75160Y548574D02*
X75084Y547506D01*
X74931Y546445D01*
X74703Y545398D01*
X74401Y544370D01*
X74027Y543366D01*
X73582Y542391D01*
X73068Y541451D01*
X72489Y540550D01*
X71847Y539692D01*
X71145Y538882D01*
X70388Y538125D01*
X69578Y537423D01*
X68720Y536781D01*
X67819Y536202D01*
X66879Y535688D01*
X65904Y535243D01*
X64900Y534869D01*
X63872Y534567D01*
X62825Y534339D01*
X61764Y534186D01*
X60696Y534110D01*
X59624Y534110D01*
X58556Y534186D01*
X57495Y534339D01*
X56448Y534567D01*
X55420Y534869D01*
X54416Y535243D01*
X53441Y535688D01*
X52501Y536202D01*
X51600Y536781D01*
X50742Y537423D01*
X49932Y538125D01*
X49175Y538882D01*
X48473Y539692D01*
X47831Y540550D01*
X47252Y541451D01*
X46738Y542391D01*
X46293Y543366D01*
X45919Y544370D01*
X45617Y545398D01*
X45389Y546445D01*
X45236Y547506D01*
X45160Y548574D01*
X45160Y549646D01*
X45236Y550714D01*
X45389Y551775D01*
X45617Y552822D01*
X45919Y553850D01*
X46293Y554854D01*
X46738Y555829D01*
X47252Y556769D01*
X47831Y557670D01*
X48473Y558528D01*
X49175Y559338D01*
X49932Y560095D01*
X50742Y560797D01*
X51600Y561439D01*
X52501Y562018D01*
X53441Y562532D01*
X54416Y562977D01*
X55420Y563351D01*
X56448Y563653D01*
X57495Y563881D01*
X58556Y564034D01*
X59624Y564110D01*
X60696Y564110D01*
X61764Y564034D01*
X62825Y563881D01*
X63872Y563653D01*
X64900Y563351D01*
X65904Y562977D01*
X66879Y562532D01*
X67819Y562018D01*
X68720Y561439D01*
X69578Y560797D01*
X70388Y560095D01*
X71145Y559338D01*
X71847Y558528D01*
X72489Y557670D01*
X73068Y556769D01*
X73582Y555829D01*
X74027Y554854D01*
X74401Y553850D01*
X74703Y552822D01*
X74931Y551775D01*
X75084Y550714D01*
X75160Y549646D01*
X75160Y548574D01*
X1485160Y548574D02*
X1485084Y547506D01*
X1484931Y546445D01*
X1484703Y545398D01*
X1484401Y544370D01*
X1484027Y543366D01*
X1483582Y542391D01*
X1483068Y541451D01*
X1482489Y540550D01*
X1481847Y539692D01*
X1481145Y538882D01*
X1480388Y538125D01*
X1479578Y537423D01*
X1478720Y536781D01*
X1477819Y536202D01*
X1476879Y535688D01*
X1475904Y535243D01*
X1474900Y534869D01*
X1473872Y534567D01*
X1472825Y534339D01*
X1471764Y534186D01*
X1470696Y534110D01*
X1469624Y534110D01*
X1468556Y534186D01*
X1467495Y534339D01*
X1466448Y534567D01*
X1465420Y534869D01*
X1464416Y535243D01*
X1463441Y535688D01*
X1462501Y536202D01*
X1461600Y536781D01*
X1460742Y537423D01*
X1459932Y538125D01*
X1459175Y538882D01*
X1458473Y539692D01*
X1457831Y540550D01*
X1457252Y541451D01*
X1456738Y542391D01*
X1456293Y543366D01*
X1455919Y544370D01*
X1455617Y545398D01*
X1455389Y546445D01*
X1455236Y547506D01*
X1455160Y548574D01*
X1455160Y549646D01*
X1455236Y550714D01*
X1455389Y551775D01*
X1455617Y552822D01*
X1455919Y553850D01*
X1456293Y554854D01*
X1456738Y555829D01*
X1457252Y556769D01*
X1457831Y557670D01*
X1458473Y558528D01*
X1459175Y559338D01*
X1459932Y560095D01*
X1460742Y560797D01*
X1461600Y561439D01*
X1462501Y562018D01*
X1463441Y562532D01*
X1464416Y562977D01*
X1465420Y563351D01*
X1466448Y563653D01*
X1467495Y563881D01*
X1468556Y564034D01*
X1469624Y564110D01*
X1470696Y564110D01*
X1471764Y564034D01*
X1472825Y563881D01*
X1473872Y563653D01*
X1474900Y563351D01*
X1475904Y562977D01*
X1476879Y562532D01*
X1477819Y562018D01*
X1478720Y561439D01*
X1479578Y560797D01*
X1480388Y560095D01*
X1481145Y559338D01*
X1481847Y558528D01*
X1482489Y557670D01*
X1483068Y556769D01*
X1483582Y555829D01*
X1484027Y554854D01*
X1484401Y553850D01*
X1484703Y552822D01*
X1484931Y551775D01*
X1485084Y550714D01*
X1485160Y549646D01*
X1485160Y548574D01*
X1485160Y2068574D02*
X1485084Y2067506D01*
X1484931Y2066445D01*
X1484703Y2065398D01*
X1484401Y2064370D01*
X1484027Y2063366D01*
X1483582Y2062391D01*
X1483068Y2061451D01*
X1482489Y2060550D01*
X1481847Y2059692D01*
X1481145Y2058882D01*
X1480388Y2058125D01*
X1479578Y2057423D01*
X1478720Y2056781D01*
X1477819Y2056202D01*
X1476879Y2055688D01*
X1475904Y2055243D01*
X1474900Y2054869D01*
X1473872Y2054567D01*
X1472825Y2054339D01*
X1471764Y2054186D01*
X1470696Y2054110D01*
X1469624Y2054110D01*
X1468556Y2054186D01*
X1467495Y2054339D01*
X1466448Y2054567D01*
X1465420Y2054869D01*
X1464416Y2055243D01*
X1463441Y2055688D01*
X1462501Y2056202D01*
X1461600Y2056781D01*
X1460742Y2057423D01*
X1459932Y2058125D01*
X1459175Y2058882D01*
X1458473Y2059692D01*
X1457831Y2060550D01*
X1457252Y2061451D01*
X1456738Y2062391D01*
X1456293Y2063366D01*
X1455919Y2064370D01*
X1455617Y2065398D01*
X1455389Y2066445D01*
X1455236Y2067506D01*
X1455160Y2068574D01*
X1455160Y2069646D01*
X1455236Y2070714D01*
X1455389Y2071775D01*
X1455617Y2072822D01*
X1455919Y2073850D01*
X1456293Y2074854D01*
X1456738Y2075829D01*
X1457252Y2076769D01*
X1457831Y2077670D01*
X1458473Y2078528D01*
X1459175Y2079338D01*
X1459932Y2080095D01*
X1460742Y2080797D01*
X1461600Y2081439D01*
X1462501Y2082018D01*
X1463441Y2082532D01*
X1464416Y2082977D01*
X1465420Y2083351D01*
X1466448Y2083653D01*
X1467495Y2083881D01*
X1468556Y2084034D01*
X1469624Y2084110D01*
X1470696Y2084110D01*
X1471764Y2084034D01*
X1472825Y2083881D01*
X1473872Y2083653D01*
X1474900Y2083351D01*
X1475904Y2082977D01*
X1476879Y2082532D01*
X1477819Y2082018D01*
X1478720Y2081439D01*
X1479578Y2080797D01*
X1480388Y2080095D01*
X1481145Y2079338D01*
X1481847Y2078528D01*
X1482489Y2077670D01*
X1483068Y2076769D01*
X1483582Y2075829D01*
X1484027Y2074854D01*
X1484401Y2073850D01*
X1484703Y2072822D01*
X1484931Y2071775D01*
X1485084Y2070714D01*
X1485160Y2069646D01*
X1485160Y2068574D01*
X75160Y2068574D02*
X75084Y2067506D01*
X74931Y2066445D01*
X74703Y2065398D01*
X74401Y2064370D01*
X74027Y2063366D01*
X73582Y2062391D01*
X73068Y2061451D01*
X72489Y2060550D01*
X71847Y2059692D01*
X71145Y2058882D01*
X70388Y2058125D01*
X69578Y2057423D01*
X68720Y2056781D01*
X67819Y2056202D01*
X66879Y2055688D01*
X65904Y2055243D01*
X64900Y2054869D01*
X63872Y2054567D01*
X62825Y2054339D01*
X61764Y2054186D01*
X60696Y2054110D01*
X59624Y2054110D01*
X58556Y2054186D01*
X57495Y2054339D01*
X56448Y2054567D01*
X55420Y2054869D01*
X54416Y2055243D01*
X53441Y2055688D01*
X52501Y2056202D01*
X51600Y2056781D01*
X50742Y2057423D01*
X49932Y2058125D01*
X49175Y2058882D01*
X48473Y2059692D01*
X47831Y2060550D01*
X47252Y2061451D01*
X46738Y2062391D01*
X46293Y2063366D01*
X45919Y2064370D01*
X45617Y2065398D01*
X45389Y2066445D01*
X45236Y2067506D01*
X45160Y2068574D01*
X45160Y2069646D01*
X45236Y2070714D01*
X45389Y2071775D01*
X45617Y2072822D01*
X45919Y2073850D01*
X46293Y2074854D01*
X46738Y2075829D01*
X47252Y2076769D01*
X47831Y2077670D01*
X48473Y2078528D01*
X49175Y2079338D01*
X49932Y2080095D01*
X50742Y2080797D01*
X51600Y2081439D01*
X52501Y2082018D01*
X53441Y2082532D01*
X54416Y2082977D01*
X55420Y2083351D01*
X56448Y2083653D01*
X57495Y2083881D01*
X58556Y2084034D01*
X59624Y2084110D01*
X60696Y2084110D01*
X61764Y2084034D01*
X62825Y2083881D01*
X63872Y2083653D01*
X64900Y2083351D01*
X65904Y2082977D01*
X66879Y2082532D01*
X67819Y2082018D01*
X68720Y2081439D01*
X69578Y2080797D01*
X70388Y2080095D01*
X71145Y2079338D01*
X71847Y2078528D01*
X72489Y2077670D01*
X73068Y2076769D01*
X73582Y2075829D01*
X74027Y2074854D01*
X74401Y2073850D01*
X74703Y2072822D01*
X74931Y2071775D01*
X75084Y2070714D01*
X75160Y2069646D01*
X75160Y2068574D01*
X868100Y1454214D02*
X868024Y1453146D01*
X867871Y1452085D01*
X867643Y1451038D01*
X867341Y1450010D01*
X866967Y1449006D01*
X866522Y1448031D01*
X866008Y1447091D01*
X865429Y1446190D01*
X864787Y1445332D01*
X864085Y1444522D01*
X863328Y1443765D01*
X862518Y1443063D01*
X861660Y1442421D01*
X860759Y1441842D01*
X859819Y1441328D01*
X858844Y1440883D01*
X857840Y1440509D01*
X856812Y1440207D01*
X855765Y1439979D01*
X854704Y1439826D01*
X853636Y1439750D01*
X852564Y1439750D01*
X851496Y1439826D01*
X850435Y1439979D01*
X849388Y1440207D01*
X848360Y1440509D01*
X847356Y1440883D01*
X846381Y1441328D01*
X845441Y1441842D01*
X844540Y1442421D01*
X843682Y1443063D01*
X842872Y1443765D01*
X842115Y1444522D01*
X841413Y1445332D01*
X840771Y1446190D01*
X840192Y1447091D01*
X839678Y1448031D01*
X839233Y1449006D01*
X838859Y1450010D01*
X838557Y1451038D01*
X838329Y1452085D01*
X838176Y1453146D01*
X838100Y1454214D01*
X838100Y1455286D01*
X838176Y1456354D01*
X838329Y1457415D01*
X838557Y1458462D01*
X838859Y1459490D01*
X839233Y1460494D01*
X839678Y1461469D01*
X840192Y1462409D01*
X840771Y1463310D01*
X841413Y1464168D01*
X842115Y1464978D01*
X842872Y1465735D01*
X843682Y1466437D01*
X844540Y1467079D01*
X845441Y1467658D01*
X846381Y1468172D01*
X847356Y1468617D01*
X848360Y1468991D01*
X849388Y1469293D01*
X850435Y1469521D01*
X851496Y1469674D01*
X852564Y1469750D01*
X853636Y1469750D01*
X854704Y1469674D01*
X855765Y1469521D01*
X856812Y1469293D01*
X857840Y1468991D01*
X858844Y1468617D01*
X859819Y1468172D01*
X860759Y1467658D01*
X861660Y1467079D01*
X862518Y1466437D01*
X863328Y1465735D01*
X864085Y1464978D01*
X864787Y1464168D01*
X865429Y1463310D01*
X866008Y1462409D01*
X866522Y1461469D01*
X866967Y1460494D01*
X867341Y1459490D01*
X867643Y1458462D01*
X867871Y1457415D01*
X868024Y1456354D01*
X868100Y1455286D01*
X868100Y1454214D01*
X1212016Y1777556D02*
X1211940Y1776488D01*
X1211787Y1775427D01*
X1211559Y1774380D01*
X1211257Y1773352D01*
X1210883Y1772348D01*
X1210438Y1771373D01*
X1209924Y1770433D01*
X1209345Y1769532D01*
X1208703Y1768674D01*
X1208001Y1767864D01*
X1207244Y1767107D01*
X1206434Y1766405D01*
X1205576Y1765763D01*
X1204675Y1765184D01*
X1203735Y1764670D01*
X1202760Y1764225D01*
X1201756Y1763851D01*
X1200728Y1763549D01*
X1199681Y1763321D01*
X1198620Y1763168D01*
X1197552Y1763092D01*
X1196480Y1763092D01*
X1195412Y1763168D01*
X1194351Y1763321D01*
X1193304Y1763549D01*
X1192276Y1763851D01*
X1191272Y1764225D01*
X1190297Y1764670D01*
X1189357Y1765184D01*
X1188456Y1765763D01*
X1187598Y1766405D01*
X1186788Y1767107D01*
X1186031Y1767864D01*
X1185329Y1768674D01*
X1184687Y1769532D01*
X1184108Y1770433D01*
X1183594Y1771373D01*
X1183149Y1772348D01*
X1182775Y1773352D01*
X1182473Y1774380D01*
X1182245Y1775427D01*
X1182092Y1776488D01*
X1182016Y1777556D01*
X1182016Y1778628D01*
X1182092Y1779696D01*
X1182245Y1780757D01*
X1182473Y1781804D01*
X1182775Y1782832D01*
X1183149Y1783836D01*
X1183594Y1784811D01*
X1184108Y1785751D01*
X1184687Y1786652D01*
X1185329Y1787510D01*
X1186031Y1788320D01*
X1186788Y1789077D01*
X1187598Y1789779D01*
X1188456Y1790421D01*
X1189357Y1791000D01*
X1190297Y1791514D01*
X1191272Y1791959D01*
X1192276Y1792333D01*
X1193304Y1792635D01*
X1194351Y1792863D01*
X1195412Y1793016D01*
X1196480Y1793092D01*
X1197552Y1793092D01*
X1198620Y1793016D01*
X1199681Y1792863D01*
X1200728Y1792635D01*
X1201756Y1792333D01*
X1202760Y1791959D01*
X1203735Y1791514D01*
X1204675Y1791000D01*
X1205576Y1790421D01*
X1206434Y1789779D01*
X1207244Y1789077D01*
X1208001Y1788320D01*
X1208703Y1787510D01*
X1209345Y1786652D01*
X1209924Y1785751D01*
X1210438Y1784811D01*
X1210883Y1783836D01*
X1211257Y1782832D01*
X1211559Y1781804D01*
X1211787Y1780757D01*
X1211940Y1779696D01*
X1212016Y1778628D01*
X1212016Y1777556D01*
X137596Y1275906D02*
X137520Y1274838D01*
X137367Y1273777D01*
X137139Y1272730D01*
X136837Y1271702D01*
X136463Y1270698D01*
X136018Y1269723D01*
X135504Y1268783D01*
X134925Y1267882D01*
X134283Y1267024D01*
X133581Y1266214D01*
X132824Y1265457D01*
X132014Y1264755D01*
X131156Y1264113D01*
X130255Y1263534D01*
X129315Y1263020D01*
X128340Y1262575D01*
X127336Y1262201D01*
X126308Y1261899D01*
X125261Y1261671D01*
X124200Y1261518D01*
X123132Y1261442D01*
X122060Y1261442D01*
X120992Y1261518D01*
X119931Y1261671D01*
X118884Y1261899D01*
X117856Y1262201D01*
X116852Y1262575D01*
X115877Y1263020D01*
X114937Y1263534D01*
X114036Y1264113D01*
X113178Y1264755D01*
X112368Y1265457D01*
X111611Y1266214D01*
X110909Y1267024D01*
X110267Y1267882D01*
X109688Y1268783D01*
X109174Y1269723D01*
X108729Y1270698D01*
X108355Y1271702D01*
X108053Y1272730D01*
X107825Y1273777D01*
X107672Y1274838D01*
X107596Y1275906D01*
X107596Y1276978D01*
X107672Y1278046D01*
X107825Y1279107D01*
X108053Y1280154D01*
X108355Y1281182D01*
X108729Y1282186D01*
X109174Y1283161D01*
X109688Y1284101D01*
X110267Y1285002D01*
X110909Y1285860D01*
X111611Y1286670D01*
X112368Y1287427D01*
X113178Y1288129D01*
X114036Y1288771D01*
X114937Y1289350D01*
X115877Y1289864D01*
X116852Y1290309D01*
X117856Y1290683D01*
X118884Y1290985D01*
X119931Y1291213D01*
X120992Y1291366D01*
X122060Y1291442D01*
X123132Y1291442D01*
X124200Y1291366D01*
X125261Y1291213D01*
X126308Y1290985D01*
X127336Y1290683D01*
X128340Y1290309D01*
X129315Y1289864D01*
X130255Y1289350D01*
X131156Y1288771D01*
X132014Y1288129D01*
X132824Y1287427D01*
X133581Y1286670D01*
X134283Y1285860D01*
X134925Y1285002D01*
X135504Y1284101D01*
X136018Y1283161D01*
X136463Y1282186D01*
X136837Y1281182D01*
X137139Y1280154D01*
X137367Y1279107D01*
X137520Y1278046D01*
X137596Y1276978D01*
X137596Y1275906D01*
X127818Y1624770D02*
X126917Y1624841D01*
X126025Y1624982D01*
X125146Y1625193D01*
X124287Y1625472D01*
X123452Y1625818D01*
X122647Y1626229D01*
X121876Y1626701D01*
X121145Y1627232D01*
X120458Y1627819D01*
X119819Y1628458D01*
X119232Y1629145D01*
X118701Y1629876D01*
X118229Y1630647D01*
X117818Y1631452D01*
X117472Y1632287D01*
X117193Y1633146D01*
X116982Y1634025D01*
X116841Y1634917D01*
X116770Y1635818D01*
X116770Y1636722D01*
X116841Y1637623D01*
X116982Y1638515D01*
X117193Y1639394D01*
X117472Y1640253D01*
X117818Y1641088D01*
X118229Y1641893D01*
X118701Y1642664D01*
X119232Y1643395D01*
X119819Y1644082D01*
X120458Y1644721D01*
X121145Y1645308D01*
X121876Y1645839D01*
X122647Y1646311D01*
X123452Y1646722D01*
X124287Y1647068D01*
X125146Y1647347D01*
X126025Y1647558D01*
X126917Y1647699D01*
X127818Y1647770D01*
X128722Y1647770D01*
X129623Y1647699D01*
X130515Y1647558D01*
X131394Y1647347D01*
X132253Y1647068D01*
X133088Y1646722D01*
X133893Y1646311D01*
X134664Y1645839D01*
X135395Y1645308D01*
X136082Y1644721D01*
X136721Y1644082D01*
X137308Y1643395D01*
X137839Y1642664D01*
X138311Y1641893D01*
X138722Y1641088D01*
X139068Y1640253D01*
X139347Y1639394D01*
X139558Y1638515D01*
X139699Y1637623D01*
X139770Y1636722D01*
X139770Y1635818D01*
X139699Y1634917D01*
X139558Y1634025D01*
X139347Y1633146D01*
X139068Y1632287D01*
X138722Y1631452D01*
X138311Y1630647D01*
X137839Y1629876D01*
X137308Y1629145D01*
X136721Y1628458D01*
X136082Y1627819D01*
X135395Y1627232D01*
X134664Y1626701D01*
X133893Y1626229D01*
X133088Y1625818D01*
X132253Y1625472D01*
X131394Y1625193D01*
X130515Y1624982D01*
X129623Y1624841D01*
X128722Y1624770D01*
X127818Y1624770D01*
X127818Y1504370D02*
X126917Y1504441D01*
X126025Y1504582D01*
X125146Y1504793D01*
X124287Y1505072D01*
X123452Y1505418D01*
X122647Y1505829D01*
X121876Y1506301D01*
X121145Y1506832D01*
X120458Y1507419D01*
X119819Y1508058D01*
X119232Y1508745D01*
X118701Y1509476D01*
X118229Y1510247D01*
X117818Y1511052D01*
X117472Y1511887D01*
X117193Y1512746D01*
X116982Y1513625D01*
X116841Y1514517D01*
X116770Y1515418D01*
X116770Y1516322D01*
X116841Y1517223D01*
X116982Y1518115D01*
X117193Y1518994D01*
X117472Y1519853D01*
X117818Y1520688D01*
X118229Y1521493D01*
X118701Y1522264D01*
X119232Y1522995D01*
X119819Y1523682D01*
X120458Y1524321D01*
X121145Y1524908D01*
X121876Y1525439D01*
X122647Y1525911D01*
X123452Y1526322D01*
X124287Y1526668D01*
X125146Y1526947D01*
X126025Y1527158D01*
X126917Y1527299D01*
X127818Y1527370D01*
X128722Y1527370D01*
X129623Y1527299D01*
X130515Y1527158D01*
X131394Y1526947D01*
X132253Y1526668D01*
X133088Y1526322D01*
X133893Y1525911D01*
X134664Y1525439D01*
X135395Y1524908D01*
X136082Y1524321D01*
X136721Y1523682D01*
X137308Y1522995D01*
X137839Y1522264D01*
X138311Y1521493D01*
X138722Y1520688D01*
X139068Y1519853D01*
X139347Y1518994D01*
X139558Y1518115D01*
X139699Y1517223D01*
X139770Y1516322D01*
X139770Y1515418D01*
X139699Y1514517D01*
X139558Y1513625D01*
X139347Y1512746D01*
X139068Y1511887D01*
X138722Y1511052D01*
X138311Y1510247D01*
X137839Y1509476D01*
X137308Y1508745D01*
X136721Y1508058D01*
X136082Y1507419D01*
X135395Y1506832D01*
X134664Y1506301D01*
X133893Y1505829D01*
X133088Y1505418D01*
X132253Y1505072D01*
X131394Y1504793D01*
X130515Y1504582D01*
X129623Y1504441D01*
X128722Y1504370D01*
X127818Y1504370D01*
M02*
