G04 EAGLE Gerber RS-274X export*
G75*
%MOMM*%
%FSLAX34Y34*%
%LPD*%
%INSolderpaste Bottom*%
%IPPOS*%
%AMOC8*
5,1,8,0,0,1.08239X$1,22.5*%
G01*
%ADD10R,1.300000X1.500000*%
%ADD11R,1.300000X1.600000*%
%ADD12R,1.600000X1.300000*%
%ADD13R,2.200000X0.600000*%
%ADD14R,3.000000X2.500000*%
%ADD15R,1.500000X1.300000*%
%ADD16R,2.500000X3.000000*%


D10*
X684445Y1808480D03*
X703445Y1808480D03*
X574700Y1808480D03*
X593700Y1808480D03*
D11*
X725195Y1917920D03*
X744195Y1917920D03*
D12*
X393065Y1621180D03*
X393065Y1640180D03*
X348615Y1651279D03*
X348615Y1670279D03*
D13*
X593445Y1854200D03*
X685445Y1879600D03*
X593445Y1841500D03*
X593445Y1866900D03*
X593445Y1879600D03*
X685445Y1866900D03*
X685445Y1892300D03*
X685445Y1905000D03*
X593445Y1905000D03*
X685445Y1930400D03*
X593445Y1892300D03*
X593445Y1917700D03*
X685445Y1917700D03*
X593445Y1930400D03*
X685445Y1854200D03*
X685445Y1841500D03*
D12*
X173990Y1682090D03*
X173990Y1663090D03*
X199390Y1729130D03*
X199390Y1748130D03*
X594360Y1736115D03*
X594360Y1755115D03*
D14*
X595630Y1588280D03*
X595630Y1642280D03*
D12*
X441960Y1777975D03*
X441960Y1758975D03*
X441960Y1714525D03*
X441960Y1733525D03*
D15*
X384810Y1344320D03*
X384810Y1363320D03*
D12*
X122428Y1413612D03*
X122428Y1394612D03*
X384810Y1388770D03*
X384810Y1407770D03*
D15*
X844550Y1344320D03*
X844550Y1363320D03*
D12*
X582168Y1413612D03*
X582168Y1394612D03*
X844550Y1388770D03*
X844550Y1407770D03*
D16*
X1295705Y2001520D03*
X1349705Y2001520D03*
D14*
X1035558Y1943278D03*
X1035558Y1997278D03*
D16*
X1241755Y1941195D03*
X1187755Y1941195D03*
X1299388Y1588770D03*
X1353388Y1588770D03*
D14*
X1193800Y1426540D03*
X1193800Y1372540D03*
D16*
X1249135Y1588770D03*
X1195135Y1588770D03*
D11*
X118770Y812165D03*
X137770Y812165D03*
X290474Y812165D03*
X309474Y812165D03*
X617830Y812165D03*
X598830Y812165D03*
X802615Y812165D03*
X783615Y812165D03*
D10*
X1176630Y1318260D03*
X1157630Y1318260D03*
D16*
X1333576Y1175004D03*
X1279576Y1175004D03*
D14*
X1402588Y617652D03*
X1402588Y671652D03*
D12*
X263020Y2010080D03*
X263020Y2029080D03*
X86360Y766420D03*
X86360Y747420D03*
X266700Y763880D03*
X266700Y744880D03*
X632460Y763880D03*
X632460Y744880D03*
X820420Y763880D03*
X820420Y744880D03*
D11*
X489560Y1224280D03*
X470560Y1224280D03*
D12*
X299720Y1235100D03*
X299720Y1254100D03*
D16*
X1091260Y1816100D03*
X1037260Y1816100D03*
D11*
X587400Y1198880D03*
X606400Y1198880D03*
X747420Y1143000D03*
X766420Y1143000D03*
D10*
X189840Y1920240D03*
X170840Y1920240D03*
D11*
X1153820Y1267460D03*
X1172820Y1267460D03*
D12*
X1155700Y1216000D03*
X1155700Y1197000D03*
M02*
