G04 EAGLE Gerber RS-274X export*
G75*
%MOMM*%
%FSLAX34Y34*%
%LPD*%
%INSoldermask Bottom*%
%IPNEG*%
%AMOC8*
5,1,8,0,0,1.08239X$1,22.5*%
G01*
%ADD10C,3.203200*%
%ADD11R,1.503200X1.703200*%
%ADD12R,1.879600X1.879600*%
%ADD13C,1.879600*%
%ADD14R,1.503200X1.803200*%
%ADD15R,1.803200X1.503200*%
%ADD16R,2.403200X0.803200*%
%ADD17C,1.981200*%
%ADD18P,2.556822X8X22.500000*%
%ADD19P,1.749142X8X292.500000*%
%ADD20R,3.203200X2.703200*%
%ADD21R,1.553200X1.553200*%
%ADD22C,1.819200*%
%ADD23R,1.703200X1.503200*%
%ADD24P,2.034460X8X112.500000*%
%ADD25P,2.034460X8X22.500000*%
%ADD26P,2.034460X8X202.500000*%
%ADD27P,2.034460X8X292.500000*%
%ADD28R,2.082800X2.082800*%
%ADD29C,2.082800*%
%ADD30C,1.616000*%
%ADD31P,1.749142X8X22.500000*%
%ADD32C,1.616000*%
%ADD33P,1.749142X8X112.500000*%
%ADD34R,2.703200X3.203200*%
%ADD35P,1.749142X8X202.500000*%
%ADD36P,1.897646X8X292.500000*%
%ADD37C,2.503200*%
%ADD38P,2.584314X8X22.500000*%
%ADD39C,2.603200*%
%ADD40P,2.584314X8X202.500000*%
%ADD41P,1.951982X8X22.500000*%
%ADD42P,1.951982X8X112.500000*%
%ADD43P,1.969084X8X112.500000*%
%ADD44P,1.969084X8X202.500000*%
%ADD45C,2.184400*%
%ADD46R,2.203200X2.203200*%
%ADD47R,1.153200X1.153200*%


D10*
X60160Y549110D03*
X1470160Y549110D03*
X1470160Y2069110D03*
X60160Y2069110D03*
X853100Y1454750D03*
X1197016Y1778092D03*
X122596Y1276442D03*
D11*
X684445Y1808480D03*
X703445Y1808480D03*
X574700Y1808480D03*
X593700Y1808480D03*
D12*
X314960Y2010410D03*
X340360Y2010410D03*
X365760Y2010410D03*
X391160Y2010410D03*
D13*
X111887Y1724025D02*
X95123Y1724025D01*
X95123Y1749425D02*
X111887Y1749425D01*
X111887Y1774825D02*
X95123Y1774825D01*
X95123Y1698625D02*
X111887Y1698625D01*
D14*
X725195Y1917920D03*
X744195Y1917920D03*
D15*
X393065Y1621180D03*
X393065Y1640180D03*
X348615Y1651279D03*
X348615Y1670279D03*
D16*
X593445Y1854200D03*
X685445Y1879600D03*
X593445Y1841500D03*
X593445Y1866900D03*
X593445Y1879600D03*
X685445Y1866900D03*
X685445Y1892300D03*
X685445Y1905000D03*
X593445Y1905000D03*
X685445Y1930400D03*
X593445Y1892300D03*
X593445Y1917700D03*
X685445Y1917700D03*
X593445Y1930400D03*
X685445Y1854200D03*
X685445Y1841500D03*
D17*
X187960Y1812290D03*
X213360Y1812290D03*
X238760Y1812290D03*
X264160Y1812290D03*
X289560Y1812290D03*
X314960Y1812290D03*
X340360Y1812290D03*
X365760Y1812290D03*
X391160Y1812290D03*
X416560Y1812290D03*
X441960Y1812290D03*
X467360Y1812290D03*
X492760Y1812290D03*
X518160Y1812290D03*
X518160Y1964690D03*
X492760Y1964690D03*
X467360Y1964690D03*
X441960Y1964690D03*
X416560Y1964690D03*
X391160Y1964690D03*
X365760Y1964690D03*
X340360Y1964690D03*
X314960Y1964690D03*
X289560Y1964690D03*
X264160Y1964690D03*
X238760Y1964690D03*
X213360Y1964690D03*
X187960Y1964690D03*
D15*
X173990Y1682090D03*
X173990Y1663090D03*
X199390Y1729130D03*
X199390Y1748130D03*
D18*
X467460Y1584325D03*
X543460Y1584325D03*
D19*
X596265Y1699260D03*
X596265Y1673860D03*
D15*
X594360Y1736115D03*
X594360Y1755115D03*
D20*
X595630Y1588280D03*
X595630Y1642280D03*
D15*
X441960Y1777975D03*
X441960Y1758975D03*
D21*
X755650Y1740535D03*
X730250Y1740535D03*
X704850Y1740535D03*
X679450Y1740535D03*
X781050Y1740535D03*
X806450Y1740535D03*
X831850Y1740535D03*
X857250Y1740535D03*
X679450Y1613535D03*
X704850Y1613535D03*
X730250Y1613535D03*
X755650Y1613535D03*
X781050Y1613535D03*
X806450Y1613535D03*
X831850Y1613535D03*
X857250Y1613535D03*
D22*
X755650Y1570815D02*
X755650Y1554655D01*
X781050Y1554655D02*
X781050Y1570815D01*
X806450Y1570815D02*
X806450Y1554655D01*
X831850Y1554655D02*
X831850Y1570815D01*
X857250Y1570815D02*
X857250Y1554655D01*
D15*
X441960Y1714525D03*
X441960Y1733525D03*
D22*
X342900Y1729280D02*
X342900Y1745440D01*
X317500Y1745440D02*
X317500Y1729280D01*
X292100Y1729280D02*
X292100Y1745440D01*
X266700Y1745440D02*
X266700Y1729280D01*
X241300Y1729280D02*
X241300Y1745440D01*
X212725Y2002330D02*
X212725Y2018490D01*
X238125Y2018490D02*
X238125Y2002330D01*
X425450Y2002330D02*
X425450Y2018490D01*
X450850Y2018490D02*
X450850Y2002330D01*
X476250Y2002330D02*
X476250Y2018490D01*
X501650Y2018490D02*
X501650Y2002330D01*
X527050Y2002330D02*
X527050Y2018490D01*
D23*
X384810Y1344320D03*
X384810Y1363320D03*
D24*
X437896Y1264920D03*
X437896Y1290320D03*
D25*
X166370Y1268730D03*
X191770Y1268730D03*
X166328Y1139190D03*
X256328Y1139190D03*
D26*
X437430Y1139190D03*
X347430Y1139190D03*
D22*
X401320Y1189530D02*
X401320Y1205690D01*
X375920Y1205690D02*
X375920Y1189530D01*
X426720Y1189530D02*
X426720Y1205690D01*
X200660Y1205690D02*
X200660Y1189530D01*
X175260Y1189530D02*
X175260Y1205690D01*
X226060Y1205690D02*
X226060Y1189530D01*
X401320Y994870D02*
X401320Y978710D01*
X375920Y978710D02*
X375920Y994870D01*
X426720Y994870D02*
X426720Y978710D01*
X401320Y1067610D02*
X401320Y1083770D01*
X375920Y1083770D02*
X375920Y1067610D01*
X426720Y1067610D02*
X426720Y1083770D01*
X402590Y911050D02*
X402590Y894890D01*
X427990Y894890D02*
X427990Y911050D01*
X377190Y911050D02*
X377190Y894890D01*
X200660Y1067610D02*
X200660Y1083770D01*
X226060Y1083770D02*
X226060Y1067610D01*
X175260Y1067610D02*
X175260Y1083770D01*
X200660Y911050D02*
X200660Y894890D01*
X226060Y894890D02*
X226060Y911050D01*
X175260Y911050D02*
X175260Y894890D01*
X200660Y978710D02*
X200660Y994870D01*
X226060Y994870D02*
X226060Y978710D01*
X175260Y978710D02*
X175260Y994870D01*
D27*
X102870Y1012190D03*
X102870Y986790D03*
D15*
X122428Y1413612D03*
X122428Y1394612D03*
X384810Y1388770D03*
X384810Y1407770D03*
D25*
X473710Y1075690D03*
X499110Y1075690D03*
D24*
X499110Y986790D03*
X499110Y1012190D03*
D25*
X102870Y1075690D03*
X128270Y1075690D03*
D28*
X166220Y1445514D03*
D29*
X166220Y1420114D03*
X166220Y1394714D03*
D28*
X462130Y1407160D03*
D29*
X462130Y1381760D03*
X462130Y1356360D03*
D30*
X267414Y1419860D02*
X253286Y1419860D01*
X253286Y1394460D02*
X267414Y1394460D01*
X267414Y1267460D02*
X253286Y1267460D01*
X329486Y1267460D02*
X343614Y1267460D01*
X267414Y1369060D02*
X253286Y1369060D01*
X253286Y1343660D02*
X267414Y1343660D01*
X267414Y1292860D02*
X253286Y1292860D01*
X253286Y1318260D02*
X267414Y1318260D01*
X329486Y1292860D02*
X343614Y1292860D01*
X343614Y1318260D02*
X329486Y1318260D01*
X329486Y1343660D02*
X343614Y1343660D01*
X343614Y1369060D02*
X329486Y1369060D01*
X329486Y1394460D02*
X343614Y1394460D01*
X343614Y1419860D02*
X329486Y1419860D01*
D22*
X191770Y1326340D02*
X191770Y1310180D01*
X166370Y1310180D02*
X166370Y1326340D01*
X210360Y1445260D02*
X226520Y1445260D01*
X226520Y1419860D02*
X210360Y1419860D01*
D23*
X844550Y1344320D03*
X844550Y1363320D03*
D26*
X557022Y1291590D03*
X531622Y1291590D03*
X942340Y1257300D03*
X916940Y1257300D03*
X898948Y1140460D03*
X808948Y1140460D03*
X707940Y1139190D03*
X617940Y1139190D03*
D22*
X656590Y1189530D02*
X656590Y1205690D01*
X681990Y1205690D02*
X681990Y1189530D01*
X631190Y1189530D02*
X631190Y1205690D01*
X852170Y1205690D02*
X852170Y1189530D01*
X877570Y1189530D02*
X877570Y1205690D01*
X826770Y1205690D02*
X826770Y1189530D01*
X656590Y994870D02*
X656590Y978710D01*
X681990Y978710D02*
X681990Y994870D01*
X631190Y994870D02*
X631190Y978710D01*
X656590Y1067610D02*
X656590Y1083770D01*
X681990Y1083770D02*
X681990Y1067610D01*
X631190Y1067610D02*
X631190Y1083770D01*
X652780Y916638D02*
X652780Y900478D01*
X678180Y900478D02*
X678180Y916638D01*
X627380Y916638D02*
X627380Y900478D01*
X852170Y1067610D02*
X852170Y1083770D01*
X826770Y1083770D02*
X826770Y1067610D01*
X877570Y1067610D02*
X877570Y1083770D01*
X852170Y911050D02*
X852170Y894890D01*
X826770Y894890D02*
X826770Y911050D01*
X877570Y911050D02*
X877570Y894890D01*
X852170Y978710D02*
X852170Y994870D01*
X826770Y994870D02*
X826770Y978710D01*
X877570Y978710D02*
X877570Y994870D01*
D27*
X944880Y1012190D03*
X944880Y986790D03*
D15*
X582168Y1413612D03*
X582168Y1394612D03*
X844550Y1388770D03*
X844550Y1407770D03*
D26*
X584200Y1075690D03*
X558800Y1075690D03*
X584200Y986790D03*
X558800Y986790D03*
X944880Y1075690D03*
X919480Y1075690D03*
D28*
X625960Y1445514D03*
D29*
X625960Y1420114D03*
X625960Y1394714D03*
D28*
X921870Y1407160D03*
D29*
X921870Y1381760D03*
X921870Y1356360D03*
D30*
X727154Y1419860D02*
X713026Y1419860D01*
X713026Y1394460D02*
X727154Y1394460D01*
X727154Y1267460D02*
X713026Y1267460D01*
X789226Y1267460D02*
X803354Y1267460D01*
X727154Y1369060D02*
X713026Y1369060D01*
X713026Y1343660D02*
X727154Y1343660D01*
X727154Y1292860D02*
X713026Y1292860D01*
X713026Y1318260D02*
X727154Y1318260D01*
X789226Y1292860D02*
X803354Y1292860D01*
X803354Y1318260D02*
X789226Y1318260D01*
X789226Y1343660D02*
X803354Y1343660D01*
X803354Y1369060D02*
X789226Y1369060D01*
X789226Y1394460D02*
X803354Y1394460D01*
X803354Y1419860D02*
X789226Y1419860D01*
D22*
X651510Y1326340D02*
X651510Y1310180D01*
X626110Y1310180D02*
X626110Y1326340D01*
X670100Y1445260D02*
X686260Y1445260D01*
X686260Y1419860D02*
X670100Y1419860D01*
D31*
X1209040Y1882045D03*
D32*
X1188720Y1882045D03*
D33*
X1256665Y1842135D03*
X1256665Y1867535D03*
D22*
X1119330Y1944370D02*
X1103170Y1944370D01*
X1103170Y1969770D02*
X1119330Y1969770D01*
X1119330Y1995170D02*
X1103170Y1995170D01*
D34*
X1295705Y2001520D03*
X1349705Y2001520D03*
D20*
X1035558Y1943278D03*
X1035558Y1997278D03*
D22*
X1240155Y1993440D02*
X1240155Y2009600D01*
X1214755Y2009600D02*
X1214755Y1993440D01*
X1189355Y1993440D02*
X1189355Y2009600D01*
D34*
X1241755Y1941195D03*
X1187755Y1941195D03*
D19*
X1287780Y1941195D03*
X1287780Y1915795D03*
D35*
X1174115Y1522730D03*
D32*
X1194435Y1522730D03*
D22*
X1131810Y1463500D02*
X1131810Y1447340D01*
X1106410Y1447340D02*
X1106410Y1463500D01*
X1081010Y1463500D02*
X1081010Y1447340D01*
D31*
X1106170Y1525270D03*
X1131570Y1525270D03*
D34*
X1299388Y1588770D03*
X1353388Y1588770D03*
D20*
X1193800Y1426540D03*
X1193800Y1372540D03*
D22*
X1237630Y1509395D02*
X1253790Y1509395D01*
X1253790Y1483995D02*
X1237630Y1483995D01*
X1237630Y1458595D02*
X1253790Y1458595D01*
D34*
X1249135Y1588770D03*
X1195135Y1588770D03*
D19*
X1299210Y1509395D03*
X1299210Y1483995D03*
D22*
X949785Y1967230D02*
X933625Y1967230D01*
X933625Y1941830D02*
X949785Y1941830D01*
X949785Y1916430D02*
X933625Y1916430D01*
X933625Y1891030D02*
X949785Y1891030D01*
X949785Y1865630D02*
X933625Y1865630D01*
X933625Y1840230D02*
X949785Y1840230D01*
X949785Y1814830D02*
X933625Y1814830D01*
D36*
X175370Y1563570D03*
X175370Y1588570D03*
X155370Y1588570D03*
X155370Y1563570D03*
D37*
X128270Y1636270D03*
X128270Y1515870D03*
D38*
X212725Y657728D03*
X263525Y657728D03*
D14*
X118770Y812165D03*
X137770Y812165D03*
X290474Y812165D03*
X309474Y812165D03*
D30*
X137160Y772160D02*
X123032Y772160D01*
X123032Y746760D02*
X137160Y746760D01*
X213360Y746760D02*
X227488Y746760D01*
X227488Y772160D02*
X213360Y772160D01*
X137160Y721360D02*
X123032Y721360D01*
X213360Y721360D02*
X227488Y721360D01*
X295117Y770890D02*
X309245Y770890D01*
X309245Y745490D02*
X295117Y745490D01*
X385445Y745490D02*
X399573Y745490D01*
X399573Y770890D02*
X385445Y770890D01*
X309245Y720090D02*
X295117Y720090D01*
X385445Y720090D02*
X399573Y720090D01*
D39*
X489839Y674940D02*
X489839Y650940D01*
X439039Y650940D02*
X439039Y674940D01*
D40*
X721995Y664586D03*
X671195Y664586D03*
D14*
X617830Y812165D03*
X598830Y812165D03*
X802615Y812165D03*
X783615Y812165D03*
D30*
X598805Y770890D02*
X584677Y770890D01*
X584677Y745490D02*
X598805Y745490D01*
X675005Y745490D02*
X689133Y745490D01*
X689133Y770890D02*
X675005Y770890D01*
X598805Y720090D02*
X584677Y720090D01*
X675005Y720090D02*
X689133Y720090D01*
X768827Y770890D02*
X782955Y770890D01*
X782955Y745490D02*
X768827Y745490D01*
X859155Y745490D02*
X873283Y745490D01*
X873283Y770890D02*
X859155Y770890D01*
X782955Y720090D02*
X768827Y720090D01*
X859155Y720090D02*
X873283Y720090D01*
D39*
X960755Y675194D02*
X960755Y651194D01*
X909955Y651194D02*
X909955Y675194D01*
D11*
X1176630Y1318260D03*
X1157630Y1318260D03*
D30*
X1049734Y1318260D02*
X1035606Y1318260D01*
X1035606Y1292860D02*
X1049734Y1292860D01*
X1049734Y1165860D02*
X1035606Y1165860D01*
X1111806Y1165860D02*
X1125934Y1165860D01*
X1049734Y1267460D02*
X1035606Y1267460D01*
X1035606Y1242060D02*
X1049734Y1242060D01*
X1049734Y1191260D02*
X1035606Y1191260D01*
X1035606Y1216660D02*
X1049734Y1216660D01*
X1111806Y1191260D02*
X1125934Y1191260D01*
X1125934Y1216660D02*
X1111806Y1216660D01*
X1111806Y1242060D02*
X1125934Y1242060D01*
X1125934Y1267460D02*
X1111806Y1267460D01*
X1111806Y1292860D02*
X1125934Y1292860D01*
X1125934Y1318260D02*
X1111806Y1318260D01*
D22*
X955548Y791797D02*
X955548Y775637D01*
X930148Y775637D02*
X930148Y791797D01*
X491490Y791543D02*
X491490Y775383D01*
X466090Y775383D02*
X466090Y791543D01*
D41*
X804870Y1775460D03*
X924870Y1775460D03*
X634930Y1639570D03*
X784930Y1639570D03*
D42*
X759714Y565456D03*
X759714Y635456D03*
D41*
X43180Y1356360D03*
X93980Y1356360D03*
D42*
X521970Y1431850D03*
X521970Y1501850D03*
X561340Y563170D03*
X561340Y633170D03*
D22*
X1448610Y1257300D02*
X1464770Y1257300D01*
X1464770Y1282700D02*
X1448610Y1282700D01*
X1448610Y1308100D02*
X1464770Y1308100D01*
X1464770Y1333500D02*
X1448610Y1333500D01*
X1076988Y1525270D02*
X1060828Y1525270D01*
X1060828Y1550670D02*
X1076988Y1550670D01*
X1076988Y1576070D02*
X1060828Y1576070D01*
X1060828Y1601470D02*
X1076988Y1601470D01*
D43*
X248920Y1537970D03*
X223520Y1537970D03*
X248920Y1563370D03*
X223520Y1563370D03*
X248920Y1588770D03*
X223520Y1588770D03*
X248920Y1614170D03*
X223520Y1614170D03*
D17*
X1131570Y1053338D03*
X1131570Y1027938D03*
X1131570Y1002538D03*
X1131570Y977138D03*
X1131570Y951738D03*
X1131570Y926338D03*
X1131570Y900938D03*
X1131570Y875538D03*
X1131570Y850138D03*
X1131570Y824738D03*
X1131570Y799338D03*
X1131570Y773938D03*
X1131570Y748538D03*
X1131570Y723138D03*
X1283970Y723138D03*
X1283970Y748538D03*
X1283970Y773938D03*
X1283970Y799338D03*
X1283970Y824738D03*
X1283970Y850138D03*
X1283970Y875538D03*
X1283970Y900938D03*
X1283970Y926338D03*
X1283970Y951738D03*
X1283970Y977138D03*
X1283970Y1002538D03*
X1283970Y1027938D03*
X1283970Y1053338D03*
D22*
X1323134Y1028446D02*
X1339294Y1028446D01*
X1339294Y1003046D02*
X1323134Y1003046D01*
D12*
X1332230Y926338D03*
X1332230Y900938D03*
X1332230Y875538D03*
X1332230Y850138D03*
D22*
X1461770Y994966D02*
X1461770Y1011126D01*
X1436370Y1011126D02*
X1436370Y994966D01*
X1097740Y723138D02*
X1081580Y723138D01*
X1081580Y748538D02*
X1097740Y748538D01*
X1097740Y773938D02*
X1081580Y773938D01*
X1081580Y799338D02*
X1097740Y799338D01*
X1097740Y824738D02*
X1081580Y824738D01*
X1081580Y850138D02*
X1097740Y850138D01*
X1097740Y875538D02*
X1081580Y875538D01*
X1081580Y900938D02*
X1097740Y900938D01*
X1097740Y926338D02*
X1081580Y926338D01*
X1081580Y951738D02*
X1097740Y951738D01*
X1097740Y977138D02*
X1081580Y977138D01*
X1081580Y1002538D02*
X1097740Y1002538D01*
X1097740Y1027938D02*
X1081580Y1027938D01*
D30*
X515620Y1662986D02*
X515620Y1677114D01*
X464820Y1677114D02*
X464820Y1662986D01*
X490220Y1662986D02*
X490220Y1677114D01*
D25*
X909828Y739648D03*
X960628Y739648D03*
X440690Y739648D03*
X491490Y739648D03*
D28*
X302410Y1148080D03*
D29*
X302410Y1173480D03*
X302410Y1198880D03*
D28*
X488546Y1198880D03*
D29*
X488546Y1173480D03*
X488546Y1148080D03*
D28*
X564238Y1198880D03*
D29*
X564238Y1173480D03*
X564238Y1148080D03*
D28*
X762150Y1061720D03*
D29*
X762150Y1087120D03*
X762150Y1112520D03*
D34*
X1333576Y1175004D03*
X1279576Y1175004D03*
D20*
X1402588Y617652D03*
X1402588Y671652D03*
D15*
X263020Y2010080D03*
X263020Y2029080D03*
X86360Y766420D03*
X86360Y747420D03*
X266700Y763880D03*
X266700Y744880D03*
X632460Y763880D03*
X632460Y744880D03*
X820420Y763880D03*
X820420Y744880D03*
D14*
X489560Y1224280D03*
X470560Y1224280D03*
D22*
X508000Y1251760D02*
X508000Y1267920D01*
X482600Y1267920D02*
X482600Y1251760D01*
D15*
X299720Y1235100D03*
X299720Y1254100D03*
D22*
X299720Y1087580D02*
X299720Y1071420D01*
X325120Y1071420D02*
X325120Y1087580D01*
D34*
X1091260Y1816100D03*
X1037260Y1816100D03*
D14*
X587400Y1198880D03*
X606400Y1198880D03*
D22*
X563880Y1239060D02*
X563880Y1255220D01*
X589280Y1255220D02*
X589280Y1239060D01*
D14*
X747420Y1143000D03*
X766420Y1143000D03*
D22*
X751840Y1183180D02*
X751840Y1199340D01*
X777240Y1199340D02*
X777240Y1183180D01*
D11*
X189840Y1920240D03*
X170840Y1920240D03*
D35*
X1257300Y1216660D03*
X1231900Y1216660D03*
D19*
X127000Y1856740D03*
X127000Y1831340D03*
D22*
X1206500Y1275540D02*
X1206500Y1259380D01*
X1231900Y1259380D02*
X1231900Y1275540D01*
X1155700Y1168860D02*
X1155700Y1152700D01*
X1181100Y1152700D02*
X1181100Y1168860D01*
D14*
X1153820Y1267460D03*
X1172820Y1267460D03*
D15*
X1155700Y1216000D03*
X1155700Y1197000D03*
D39*
X1390080Y767080D02*
X1414080Y767080D01*
X1414080Y716280D02*
X1390080Y716280D01*
X1390080Y1150620D02*
X1414080Y1150620D01*
X1414080Y1099820D02*
X1390080Y1099820D01*
X1390080Y1534160D02*
X1414080Y1534160D01*
X1414080Y1483360D02*
X1390080Y1483360D01*
D22*
X993600Y1967230D02*
X977440Y1967230D01*
X977440Y1941830D02*
X993600Y1941830D01*
X993600Y1916430D02*
X977440Y1916430D01*
X977440Y1891030D02*
X993600Y1891030D01*
X993600Y1865630D02*
X977440Y1865630D01*
X977440Y1840230D02*
X993600Y1840230D01*
X993600Y1814830D02*
X977440Y1814830D01*
X1015540Y1525270D02*
X1031700Y1525270D01*
X1031700Y1550670D02*
X1015540Y1550670D01*
X1015540Y1576070D02*
X1031700Y1576070D01*
X1031700Y1601470D02*
X1015540Y1601470D01*
D44*
X97780Y1912700D03*
X97780Y1887300D03*
X72380Y1912700D03*
X72380Y1887300D03*
D22*
X1216660Y653240D02*
X1216660Y637080D01*
X1242060Y637080D02*
X1242060Y653240D01*
X1267460Y653240D02*
X1267460Y637080D01*
X1292860Y637080D02*
X1292860Y653240D01*
D45*
X1394714Y1916938D02*
X1414526Y1916938D01*
X1414526Y1866900D02*
X1394714Y1866900D01*
X1394714Y1816862D02*
X1414526Y1816862D01*
D46*
X981710Y1102360D03*
X582930Y1504950D03*
X340360Y1918970D03*
X415290Y1714500D03*
X213360Y1920240D03*
X563880Y1930400D03*
X875030Y1282700D03*
X532511Y822960D03*
X1009015Y819785D03*
D47*
X746760Y1780540D03*
D46*
X551180Y1965960D03*
X596900Y1965960D03*
X911860Y2026920D03*
X1005840Y2026920D03*
X1308100Y1089660D03*
X892810Y852170D03*
X1336040Y576580D03*
X501650Y861060D03*
X1183340Y1122680D03*
X1348740Y2039620D03*
X687070Y1240790D03*
X302768Y1491742D03*
X73660Y828040D03*
X1028065Y611505D03*
X135890Y1994408D03*
X135890Y2062480D03*
X1206500Y1049020D03*
X1216660Y1089660D03*
M02*
